<svg width="108" height="64" viewBox="0 0 108 64" fill="none" xmlns="http://www.w3.org/2000/svg">
<g id="Union">
<path d="M30.8398 28.1841L44.3487 0L58.6524 28.1841H30.8398Z" fill="#EEE8A9"/>
<path d="M1.92649 28.1842V0.0732324H8.63132V11.356H19.5622V0.0732324H26.2535V28.1842H19.5622V16.8876H8.63132V28.1842H1.92649Z" fill="#EEE8A9"/>
<path d="M57.8029 5.5911V0.0732324H81.2494V5.5911H72.8379V28.1842H66.2279V5.5911H57.8029Z" fill="#EEE8A9"/>
<path d="M18.7058 45.6895H25.4783C25.3158 44.0057 24.8959 42.5096 24.2186 41.201C23.5414 39.8925 22.6609 38.7898 21.5773 37.8931C20.4937 36.9871 19.2386 36.3008 17.8118 35.8342C16.3851 35.3583 14.8319 35.1204 13.1523 35.1204C10.6871 35.1204 8.46117 35.6786 6.47456 36.795C4.48794 37.9114 2.9122 39.5448 1.74732 41.6952C0.58244 43.8456 0 46.4673 0 49.5602C0 52.644 0.573409 55.2611 1.72023 57.4115C2.86705 59.5619 4.42925 61.1999 6.40683 62.3254C8.39345 63.4418 10.6419 64 13.1523 64C15.0576 64 16.7463 63.7072 18.2182 63.1215C19.6991 62.5359 20.9543 61.7489 21.9837 60.7607C23.0131 59.7632 23.8213 58.6606 24.4083 57.4527C25.0043 56.2448 25.3609 55.0186 25.4783 53.7741L18.7058 53.7329C18.5884 54.4101 18.3762 55.0186 18.0692 55.5585C17.7712 56.0892 17.3874 56.5422 16.9178 56.9174C16.4573 57.2834 15.92 57.5625 15.306 57.7546C14.7009 57.9468 14.0282 58.0429 13.2877 58.0429C11.9694 58.0429 10.827 57.7272 9.86083 57.0958C8.90365 56.4552 8.15866 55.5081 7.62589 54.2545C7.10215 52.9917 6.84028 51.4269 6.84028 49.5602C6.84028 47.7667 7.09763 46.2385 7.61235 44.9757C8.13609 43.7129 8.88107 42.7475 9.84729 42.0795C10.8225 41.4115 11.9829 41.0775 13.3284 41.0775C14.0869 41.0775 14.7777 41.1873 15.4008 41.4069C16.0329 41.6174 16.5792 41.9239 17.0397 42.3266C17.5003 42.7292 17.8705 43.2142 18.1504 43.7815C18.4304 44.3489 18.6155 44.9848 18.7058 45.6895Z" fill="#EEE8A9"/>
<path d="M30.7838 35.5047H37.4887V46.7875H48.4195V35.5047H55.1108V63.6157H48.4195V52.3191H37.4887V63.6157H30.7838V35.5047Z" fill="#EEE8A9"/>
<path d="M84.5534 35.5047V41.0226H92.9785V63.6157H99.5885V41.0226H108V35.5047H84.5534Z" fill="#EEE8A9"/>
<path d="M93.6168 0L80.1078 28.1841H107.92L93.6168 0Z" fill="#EEE8A9"/>
<path d="M57.8538 63.6156L71.7488 35.4975L86.4611 63.6156H57.8538Z" fill="#EEE8A9"/>
</g>
</svg>
